<?xml version="1.0" encoding="UTF-8"?>
<svg id="_レイヤー_2" data-name="レイヤー 2" xmlns="http://www.w3.org/2000/svg" viewBox="0 0 408.21 576.35">
  <g id="_文字3" data-name="文字3">
    <g>
      <path d="M99.52,527.68h-41.01v-1.45c5.86-.38,6.62-1.37,6.62-7.23v-33.17c0-5.63-.91-6.77-6.62-7.08v-1.45h40.33l.3,10.88h-1.9c-1.14-6.85-2.89-7.99-11.72-7.99h-9.97c-2.13,0-2.66.3-2.66,2.74v16.74h11.49c6.54,0,7.68-1.29,8.6-7.3h1.75v17.8h-1.75c-.91-6.39-2.05-7.38-8.6-7.38h-11.49v18.49c0,3.2,2.05,3.58,7.68,3.58h2.74c10.88,0,14.15-1.98,17.58-10.04h2.13l-3.5,12.86Z"/>
      <path d="M161.84,502.11c-4.41.38-5.33,1.14-5.33,6.09v15.22c-4.18,3.42-11.49,5.33-19.33,5.33s-15.52-2.89-20.54-8.14c-4.26-4.49-6.32-10.35-6.32-17.8,0-8.37,3.04-15.37,8.14-20.01,4.56-4.18,10.8-6.54,18.18-6.54,4.11,0,6.7.61,10.12,1.75,1.45.53,2.59.76,3.35.76,1.6,0,2.97-1.07,3.42-2.51h1.67l.61,16.06h-1.75c-1.9-4.64-3.12-6.62-5.4-8.83-2.89-2.74-6.85-4.18-11.11-4.18-5.25,0-9.43,1.9-12.71,5.25-4.03,4.03-5.86,10.96-5.86,18.49,0,14.15,8.07,22.67,20.01,22.67,5.86,0,10.12-2.13,10.12-4.64v-11.95c0-5.93-.76-6.54-6.77-7v-1.37h19.48v1.37Z"/>
      <path d="M170.29,527.68v-1.45c6.39-.23,7.38-1.14,7.38-7.08v-33.4c0-6.01-.91-6.62-7.38-7v-1.45h22.6v1.45c-6.39.3-7.46,1.22-7.46,7v33.4c0,5.71,1.22,6.85,7.46,7.08v1.45h-22.6Z"/>
      <path d="M234.12,492.45c-.91-3.35-1.75-5.33-3.12-7.15-2.66-3.42-6.47-5.93-11.03-5.93s-7.69,3.04-7.69,7.23c0,5.17,5.63,8.37,13.62,13.01,8.07,4.72,11.79,9.13,11.79,14.91,0,8.52-6.7,14.23-15.52,14.23-3.2,0-6.16-.53-8.98-1.75-1.45-.61-2.74-.84-3.58-.84-1.14,0-2.13.91-2.13,2.51h-1.67l-2.21-16.13h1.67c3.5,9.21,8.45,13.47,15.67,13.47,5.33,0,9.05-3.5,9.05-8.52,0-2.66-.76-4.41-2.21-6.01-2.66-2.89-7.91-6.24-12.78-8.83-6.85-3.65-9.28-8.37-9.28-13.09,0-8.29,5.71-13.32,13.24-13.32,3.12,0,5.1.46,7.99,1.67,1.37.61,2.59.91,3.35.91,1.29,0,2.13-.91,2.43-2.59h1.6l1.67,16.21h-1.9Z"/>
      <path d="M286.17,527.68v-1.45c2.74,0,3.27-.15,4.18-.68.61-.3,1.07-1.14,1.07-1.83,0-1.14-.53-3.2-1.45-5.33l-3.12-7.15h-19.93l-3.5,8.67c-.38.99-.68,2.28-.68,3.2,0,2.36,1.67,3.12,5.33,3.12v1.45h-15.14v-1.45c4.41-.46,5.1-2.05,9.59-12.71l15.67-37.13h1.52l18.72,42.84c2.13,4.95,3.2,6.54,7.15,7v1.45h-19.4ZM276.96,487.2l-8.75,20.92h17.58l-8.83-20.92Z"/>
      <path d="M346.89,527.68l-18.11-23.43-4.26.15v14.76c0,5.78.91,6.7,6.77,7.08v1.45h-21v-1.45c5.71-.46,6.47-1.29,6.47-7.99v-32.49c0-5.63-.61-6.54-6.47-7v-1.45h20.7c7.23,0,12.63,1.83,15.9,4.49,2.51,2.05,3.73,5.78,3.73,9.13,0,6.62-4.26,11.03-13.77,12.48l15.22,19.25c2.21,2.81,3.8,3.27,7.15,3.58v1.45h-12.33ZM324.52,501.58c7.3-.15,9.97-.68,13.47-2.59,2.74-1.52,4.34-4.87,4.34-8.67,0-6.85-4.49-10.19-13.92-10.19-2.59,0-3.88.53-3.88,3.2v18.26Z"/>
      <path d="M408.21,519.08c-4.41,6.31-11.79,9.66-20.77,9.66-6.92,0-13.54-2.43-17.96-6.77-4.64-4.56-7.3-11.49-7.3-19.02s2.51-13.92,6.85-18.79c4.87-5.4,11.41-7.91,18.49-7.91,2.97,0,6.01.3,9.05,1.14,1.6.46,3.96,1.37,5.25,1.37,1.45,0,2.74-.91,3.2-2.51h1.52l.68,17.27h-1.75c-.91-4.18-2.05-6.39-3.96-8.45-3.35-3.58-7.3-5.78-12.25-5.78-11.49,0-18.26,9.28-18.26,22.45,0,8.37,1.9,14.3,5.48,18.18,3.35,3.58,8.29,5.48,13.54,5.48,6.85,0,11.03-2.28,16.74-7.68l1.45,1.37Z"/>
      <g>
        <path d="M9.82,523.11c0-.91.3-2.21.68-3.2l3.5-8.67h8.49c-1.78-4.4-4.04-6.71-8.26-8.71l-4.64,10.99c-4.49,10.65-5.17,12.25-9.59,12.71v1.45h15.14v-1.45c-3.65,0-5.33-.76-5.33-3.12Z"/>
        <path d="M24.7,483.14c2.6,10.43,4.77,13.67,12.35,16.75l-10.27-23.49h-1.52l-9.15,21.68c4.65-2.75,6.48-6.48,8.59-14.94Z"/>
        <path d="M45.5,519.23l-7.78-17.8c-5.93,2.31-8.71,4.59-10.82,9.81h7.03l3.12,7.15c.91,2.13,1.45,4.18,1.45,5.33,0,.68-.46,1.52-1.07,1.83-.91.53-1.45.68-4.19.68v1.45h19.4v-1.45c-3.96-.46-5.02-2.05-7.15-7Z"/>
      </g>
    </g>
    <path d="M190.55,557.77c8.33-2.06,17.12-2.07,25.45,0-8.33,2.07-17.12,2.06-25.45,0h0Z"/>
    <path d="M203.28,576.35c-2.06-12.28-2.08-24.88,0-37.17,2.08,12.28,2.06,24.88,0,37.17h0Z"/>
    <path d="M26.49,557.77c26-.75,54.52-1.1,80.63-1.32,26.9.12,53.78-1.21,80.63,1.32-26.85,2.53-53.73,1.2-80.63,1.32-26.13-.22-54.6-.57-80.63-1.32h0Z"/>
    <path d="M382.37,557.77c-26,.75-54.52,1.1-80.63,1.32-26.9-.12-53.78,1.21-80.63-1.32,26.85-2.53,53.73-1.2,80.63-1.32,26.13.22,54.6.57,80.63,1.32h0Z"/>
  </g>
  <g id="_メイン" data-name="メイン">
    <g>
      <g>
        <path d="M403.84,139.08c-.56,1.4-1.14,2.83-1.75,4.29.54-1.22,1.13-2.65,1.75-4.29Z"/>
        <path d="M333.88,193.16v10.28c18.41,3.11,36.57-9.27,48.76-20.45,4.05-4.1,8.2-9.2,11.41-15.21-40.71,9.97-55.3,20.5-60.17,25.38Z"/>
        <path d="M402.09,143.37c-.06.13-.11.25-.17.38.04-.09.09-.19.13-.28.01-.03.03-.06.04-.1Z"/>
        <path d="M403.84,139.08c1.54-4.1,3.2-9.44,4.38-15.77,0,0-20.55,22.78-74.33,44.74v18.56c38.49-16,60.17-23.32,68.04-42.86.05-.13.11-.25.17-.38.61-1.46,1.19-2.89,1.75-4.29Z"/>
        <path d="M333.88,219.6s17.67-.48,30.45-18.91c-9.04,5.11-24.66,7.13-30.45,7.72v11.19Z"/>
      </g>
      <g>
        <path d="M5.02,139.08c.56,1.4,1.14,2.83,1.75,4.29-.54-1.22-1.13-2.65-1.75-4.29Z"/>
        <path d="M74.98,193.16v10.28c-18.41,3.11-36.57-9.27-48.76-20.45-4.05-4.1-8.2-9.2-11.41-15.21,40.71,9.97,55.3,20.5,60.17,25.38Z"/>
        <path d="M6.77,143.37c.06.13.11.25.17.38-.04-.09-.09-.19-.13-.28-.01-.03-.03-.06-.04-.1Z"/>
        <path d="M5.02,139.08c-1.54-4.1-3.2-9.44-4.37-15.77,0,0,20.55,22.78,74.33,44.74v18.56c-38.49-16-60.17-23.32-68.04-42.86-.05-.13-.11-.25-.17-.38-.61-1.46-1.19-2.89-1.75-4.29Z"/>
        <path d="M74.98,219.6s-17.67-.48-30.45-18.91c9.04,5.11,24.66,7.13,30.45,7.72v11.19Z"/>
      </g>
    </g>
    <g>
      <path d="M306.56,258.89l-2.06,17.39c-1.72.76-3.16,1-3.16,1,.82-7.98,1.85-24.62,1.85-24.62,12.72-9.95,19.37-17.1,22.68-21.3l3.02-92.42-54.62-30.84s22.52,27.97,20.27,81.09c-.84,19.79-9.89,36.71-20.21,49.76l-3.82,129.88-4.88,6.13v-126.11c-11.99,12.36-23.15,19.3-23.15,19.3,6.26,112.69-13.83,145.72-13.83,145.72,0,0,34.82-27.23,56.03-51.81,30.13-34.91,38.9-60.78,38.9-60.78l1.91-58.49c-9.59,9.85-18.93,16.09-18.93,16.09Z"/>
      <path d="M102.3,258.89l2.06,17.39c1.72.76,3.16,1,3.16,1-.82-7.98-1.85-24.62-1.85-24.62-12.72-9.95-19.37-17.1-22.68-21.3l-3.02-92.42,54.62-30.84s-22.52,27.97-20.27,81.09c.84,19.79,9.89,36.71,20.21,49.76l3.82,129.88,4.88,6.13v-126.11c11.99,12.36,23.15,19.3,23.15,19.3-6.26,112.69,13.83,145.72,13.83,145.72,0,0-34.82-27.23-56.03-51.81-30.13-34.91-38.9-60.78-38.9-60.78l-1.91-58.49c9.59,9.85,18.93,16.09,18.93,16.09Z"/>
    </g>
    <g>
      <g>
        <path d="M365.58,278.92s-17.25,14.45-8.87,40.73c0,0,17.09-13.14,8.87-40.73Z"/>
        <path d="M377.02,316.77c-9.29.74-15.35,3.56-19.32,6.86-.01,0-1.11.89-2.02,1.84s-2.88,3.83-5.06,7.52c1.75-6.1,3.05-16.97-5.85-25.66,0,0-9.62,18.71,3.35,29.75-3.21,5.06-7.68,11.44-13.65,18.75,2.57-5.9,4.16-14.87-1.52-25.66,0,0-14.31,16.4-4.04,32.21-.11.13-.22.25-.33.38-3.76,4.25-8.17,8.94-13.28,13.92,2.03-5.26,2.99-12.32.52-21.24,0,0-15.26,9.26-9.9,30.01-5.8,5.2-12.29,10.63-19.56,16.2,3.28-5.5,5.89-13.47,5.56-24.83,0,0-22.22,10.91-17.66,33.72-14.37,10.12-31.23,20.49-50.9,30.53-.98.5-1.37,1.71-.87,2.69.35.69,1.06,1.09,1.78,1.09.31,0,.62-.07.91-.22,18.97-9.69,35.37-19.68,49.46-29.47,32.67,11.4,46.35-9.18,46.35-9.18-13.86-4.57-24.08-4.05-31.38-1.78,6.8-5.25,12.93-10.37,18.45-15.29,28.34,10.58,40.28-8.67,40.28-8.67-14.62-5.13-24.59-3.25-30.99.04,5.57-5.41,10.35-10.47,14.39-15.05.17-.2.34-.39.51-.58,0,0,0,0,0,0,26.73,5.32,34.2-14.08,34.2-14.08-12.35-2.14-20.45.33-25.65,3.76,5.55-7.11,9.6-13.18,12.42-17.84,21.77-2.63,23.8-19.72,23.8-19.72Z"/>
      </g>
      <g>
        <path d="M43.28,278.92s17.25,14.45,8.87,40.73c0,0-17.09-13.14-8.87-40.73Z"/>
        <path d="M31.84,316.77c9.29.74,15.35,3.56,19.32,6.86.01,0,1.11.89,2.02,1.84s2.88,3.83,5.06,7.52c-1.75-6.1-3.05-16.97,5.85-25.66,0,0,9.62,18.71-3.35,29.75,3.21,5.06,7.68,11.44,13.65,18.75-2.57-5.9-4.16-14.87,1.52-25.66,0,0,14.31,16.4,4.04,32.21.11.13.22.25.33.38,3.76,4.25,8.17,8.94,13.28,13.92-2.03-5.26-2.99-12.32-.52-21.24,0,0,15.26,9.26,9.9,30.01,5.8,5.2,12.29,10.63,19.56,16.2-3.28-5.5-5.89-13.47-5.56-24.83,0,0,22.22,10.91,17.66,33.72,14.37,10.12,31.23,20.49,50.9,30.53.98.5,1.37,1.71.87,2.69-.35.69-1.06,1.09-1.78,1.09-.31,0-.62-.07-.91-.22-18.97-9.69-35.37-19.68-49.46-29.47-32.67,11.4-46.35-9.18-46.35-9.18,13.86-4.57,24.08-4.05,31.38-1.78-6.8-5.25-12.93-10.37-18.45-15.29-28.34,10.58-40.28-8.67-40.28-8.67,14.62-5.13,24.59-3.25,30.99.04-5.57-5.41-10.35-10.47-14.39-15.05-.17-.2-.34-.39-.51-.58,0,0,0,0,0,0-26.73,5.32-34.2-14.08-34.2-14.08,12.35-2.14,20.45.33,25.65,3.76-5.55-7.11-9.6-13.18-12.42-17.84-21.77-2.63-23.8-19.72-23.8-19.72Z"/>
      </g>
    </g>
    <g>
      <g>
        <path d="M376.8,201.35c8.52,30.16,7.49,63.24-3.01,92.78,6.41-30.54,7.41-61.88,3.01-92.78h0Z"/>
        <path d="M253.11,63.53c25.65,6.24,49.63,20.14,68.97,38.03,15,14.11,27.69,30.9,36.41,49.56-11.94-19.9-27.2-38.21-44.97-53.14-17.8-14.88-38.52-26.69-60.41-34.45h0Z"/>
      </g>
      <g>
        <path d="M32.06,201.35c-4.39,30.9-3.4,62.23,3.01,92.78-10.5-29.53-11.53-62.62-3.01-92.78h0Z"/>
        <path d="M155.75,63.53c-21.89,7.76-42.62,19.57-60.41,34.45-17.77,14.93-33.02,33.23-44.97,53.14,8.73-18.65,21.42-35.45,36.41-49.56,19.34-17.9,43.31-31.8,68.97-38.03h0Z"/>
      </g>
    </g>
    <polygon points="204.43 0 209.8 50.14 249.05 56.74 209.8 63.34 204.43 99.48 199.06 63.34 159.81 56.74 199.06 50.14 204.43 0"/>
    <polygon points="204.43 99.48 212.37 171.44 342.89 179.38 212.37 187.33 213.94 393.6 204.43 442.59 194.93 393.6 196.49 187.33 65.97 179.38 196.49 171.44 204.43 99.48"/>
    <g>
      <path d="M368.1,238.18c8.59-2.06,17.64-2.07,26.23,0-8.59,2.08-17.64,2.06-26.23,0h0Z"/>
      <path d="M40.76,238.18c-8.59-2.06-17.64-2.07-26.23,0,8.59,2.08,17.64,2.06,26.23,0h0Z"/>
    </g>
    <polygon points="154.03 128.98 204.43 172.41 254.84 128.98 210.86 179.38 254.84 229.79 204.43 186.36 154.03 229.79 198.01 179.38 154.03 128.98"/>
  </g>
</svg>