<?xml version="1.0" encoding="UTF-8"?>
<svg xmlns="http://www.w3.org/2000/svg" xmlns:xlink="http://www.w3.org/1999/xlink" viewBox="0 0 338 338">
  <defs>
    <style>
      .cls-1 {
        isolation: isolate;
      }

      .cls-2 {
        fill: url(#_名称未設定グラデーション_5);
      }

      .cls-3 {
        mix-blend-mode: darken;
      }

      .cls-4 {
        fill: #494949;
      }
    </style>
    <linearGradient id="_名称未設定グラデーション_5" data-name="名称未設定グラデーション 5" x1="169" y1="0" x2="169" y2="338" gradientUnits="userSpaceOnUse">
      <stop offset="0" stop-color="#fff"/>
      <stop offset="1" stop-color="#797979"/>
    </linearGradient>
  </defs>
  <g class="cls-1">
    <g id="_レイヤー_2" data-name="レイヤー 2">
      <g id="_レイヤー_3" data-name="レイヤー 3">
        <rect class="cls-2" width="338" height="338"/>
      </g>
      <g id="_レイヤー_2-2" data-name="レイヤー 2">
        <g class="cls-3">
          <path class="cls-4" d="M89.04,297.73v.79h22.52l1.92-7.06h-1.17c-1.88,4.43-3.68,5.52-9.65,5.52h-1.5c-3.09,0-4.22-.21-4.22-1.96v-10.15h6.31c3.59,0,4.22.54,4.72,4.05h.96v-9.78h-.96c-.5,3.3-1.13,4.01-4.72,4.01h-6.31v-9.19c0-1.34.29-1.5,1.46-1.5h5.47c4.85,0,5.81.63,6.43,4.39h1.04l-.17-5.98h-22.15v.79c3.13.17,3.64.79,3.64,3.89v18.22c0,3.22-.42,3.76-3.64,3.97Z"/>
          <path class="cls-4" d="M132.46,271.95c2.34,0,4.51.79,6.1,2.3,1.25,1.21,1.92,2.3,2.97,4.85h.96l-.33-8.82h-.92c-.25.79-1,1.38-1.88,1.38-.42,0-1.04-.13-1.84-.42-1.88-.63-3.3-.96-5.56-.96-4.05,0-7.48,1.3-9.99,3.59-2.8,2.55-4.47,6.39-4.47,10.99,0,4.09,1.13,7.31,3.47,9.78,2.76,2.88,7.02,4.47,11.28,4.47s8.32-1.04,10.61-2.92v-8.36c0-2.72.5-3.13,2.92-3.34v-.75h-10.7v.75c3.3.25,3.72.58,3.72,3.84v6.56c0,1.38-2.34,2.55-5.56,2.55-6.56,0-10.99-4.68-10.99-12.45,0-4.14,1-7.94,3.22-10.15,1.8-1.84,4.09-2.88,6.98-2.88Z"/>
          <path class="cls-4" d="M162.84,271.66v-.79h-12.41v.79c3.55.21,4.05.54,4.05,3.84v18.34c0,3.26-.54,3.76-4.05,3.89v.79h12.41v-.79c-3.43-.13-4.09-.75-4.09-3.89v-18.34c0-3.18.58-3.68,4.09-3.84Z"/>
          <path class="cls-4" d="M178.25,297.61c-3.97,0-6.69-2.34-8.61-7.4h-.92l1.21,8.86h.92c0-.88.54-1.38,1.17-1.38.46,0,1.17.13,1.96.46,1.55.67,3.18.96,4.93.96,4.85,0,8.52-3.13,8.52-7.81,0-3.18-2.05-5.6-6.48-8.19-4.39-2.55-7.48-4.3-7.48-7.15,0-2.3,1.63-3.97,4.22-3.97s4.6,1.38,6.06,3.26c.75,1,1.21,2.09,1.71,3.93h1.04l-.92-8.9h-.88c-.17.92-.63,1.42-1.34,1.42-.42,0-1.09-.17-1.84-.5-1.59-.67-2.67-.92-4.39-.92-4.14,0-7.27,2.76-7.27,7.31,0,2.59,1.34,5.18,5.1,7.19,2.67,1.42,5.56,3.26,7.02,4.85.79.88,1.21,1.84,1.21,3.3,0,2.76-2.05,4.68-4.97,4.68Z"/>
          <path class="cls-4" d="M216.36,297.36c-.5.29-.79.38-2.3.38v.79h10.65v-.79c-2.17-.25-2.76-1.13-3.93-3.84l-10.28-23.52h-.84l-8.61,20.39c-2.47,5.85-2.84,6.73-5.26,6.98v.79h8.32v-.79c-2.01,0-2.92-.42-2.92-1.71,0-.5.17-1.21.38-1.76l1.92-4.76h10.95l1.71,3.93c.5,1.17.79,2.3.79,2.92,0,.38-.25.84-.58,1ZM204.2,287.79l4.81-11.49,4.85,11.49h-9.65Z"/>
          <path class="cls-4" d="M237.47,285.66l9.95,12.87h6.77v-.79c-1.84-.17-2.72-.42-3.93-1.96l-8.36-10.57c5.22-.79,7.56-3.22,7.56-6.85,0-1.84-.67-3.89-2.05-5.01-1.8-1.46-4.76-2.47-8.73-2.47h-11.37v.79c3.22.25,3.55.75,3.55,3.84v17.84c0,3.68-.42,4.14-3.55,4.39v.79h11.53v-.79c-3.22-.21-3.72-.71-3.72-3.89v-8.11l2.34-.08ZM235.13,274.17c0-1.46.71-1.75,2.13-1.75,5.18,0,7.65,1.84,7.65,5.6,0,2.09-.88,3.93-2.38,4.76-1.92,1.04-3.38,1.34-7.4,1.42v-10.03Z"/>
          <path class="cls-4" d="M271.1,297.27c-2.88,0-5.6-1.04-7.44-3.01-1.96-2.13-3.01-5.39-3.01-9.99,0-7.23,3.72-12.33,10.03-12.33,2.72,0,4.89,1.21,6.73,3.18,1.04,1.13,1.67,2.34,2.17,4.64h.96l-.38-9.49h-.84c-.25.88-.96,1.38-1.75,1.38-.71,0-2.01-.5-2.88-.75-1.67-.46-3.34-.63-4.97-.63-3.89,0-7.48,1.38-10.15,4.35-2.38,2.67-3.76,6.14-3.76,10.32s1.46,7.94,4.01,10.45c2.42,2.38,6.06,3.72,9.86,3.72,4.93,0,8.98-1.84,11.41-5.31l-.79-.75c-3.13,2.97-5.43,4.22-9.19,4.22Z"/>
          <path class="cls-4" d="M64.6,289.5h4.66c-.98-2.41-2.22-3.68-4.54-4.78l-2.55,6.04c-2.46,5.85-2.84,6.73-5.26,6.98v.79h8.32v-.79c-2.01,0-2.92-.42-2.92-1.71,0-.5.17-1.21.38-1.76l1.92-4.76Z"/>
          <path class="cls-4" d="M77.26,283.27l-5.64-12.9h-.84l-5.03,11.91c2.56-1.51,3.56-3.56,4.72-8.2,1.43,5.73,2.62,7.51,6.78,9.2Z"/>
          <path class="cls-4" d="M77.47,297.36c-.5.29-.79.38-2.3.38v.79h10.66v-.79c-2.17-.25-2.76-1.13-3.93-3.84l-4.27-9.77c-3.26,1.27-4.78,2.52-5.94,5.39h3.86l1.71,3.93c.5,1.17.79,2.3.79,2.92,0,.38-.25.84-.58,1Z"/>
          <path class="cls-4" d="M169.38,314.23c-.04-3.14-.31-6.28-.84-9.38-.52,3.1-.79,6.24-.83,9.38-2.07.06-4.14.33-6.15.83,2.02.5,4.08.77,6.15.83.04,3.14.31,6.28.83,9.38.52-3.1.79-6.24.83-9.38,2.07-.06,4.14-.32,6.15-.83-2.02-.5-4.08-.77-6.15-.83Z"/>
          <path class="cls-4" d="M115.74,314.33c-14.34.12-30,.31-44.28.72,14.3.41,29.93.6,44.28.72,14.77-.07,29.54.66,44.28-.72-14.74-1.39-29.51-.66-44.28-.72Z"/>
          <path class="cls-4" d="M178.34,315.05c14.74,1.39,29.51.66,44.28.72,14.34-.12,30-.31,44.28-.72-14.3-.41-29.93-.6-44.28-.72-14.77.07-29.54-.66-44.28.72Z"/>
          <path class="cls-4" d="M273.31,100.88c-22.36,5.48-30.37,11.26-33.04,13.94v5.64c10.11,1.71,20.09-5.09,26.78-11.23,2.22-2.25,4.5-5.05,6.27-8.35Z"/>
          <path class="cls-4" d="M240.27,129.34s9.71-.26,16.72-10.39c-4.97,2.81-13.54,3.91-16.72,4.24v6.14Z"/>
          <path class="cls-4" d="M60.63,87.48s.01.04.02.05c.02.05.05.1.07.15,4.32,10.73,16.23,14.75,37.37,23.54v-3.67l3.49.21.92,28.03c1.82,2.31,5.47,6.23,12.46,11.7,0,0,.57,9.14,1.02,13.52,0,0-.79-.13-1.74-.55l-1.13-9.55s-5.13-3.42-10.4-8.83l1.05,32.12s4.82,14.21,21.36,33.38c11.65,13.5,30.77,28.45,30.77,28.45,0,0-11.03-18.14-7.59-80.03,0,0-6.13-3.81-12.71-10.6v69.25l-2.68-3.37-2.1-71.32c-5.67-7.16-10.64-16.46-11.1-27.33-.05-1.29-.07-2.54-.08-3.77l42.38,2.58-20.5,23.49,23.3-20.07-.83,110.03,5.22,26.9,5.22-26.9-.83-110.03,23.3,20.07-20.5-23.49,42.38-2.58c0,1.23-.02,2.49-.08,3.77-.46,10.87-5.43,20.16-11.1,27.33l-2.1,71.32-2.68,3.37v-69.25c-6.59,6.79-12.71,10.6-12.71,10.6,3.44,61.88-7.59,80.03-7.59,80.03,0,0,19.12-14.95,30.77-28.45,16.54-19.17,21.36-33.38,21.36-33.38l1.05-32.12c-5.27,5.41-10.4,8.83-10.4,8.83l-1.13,9.55c-.95.42-1.74.55-1.74.55.45-4.38,1.02-13.52,1.02-13.52,6.99-5.47,10.64-9.39,12.46-11.7l.92-28.03,3.49-.21v3.67c21.14-8.79,33.04-12.81,37.37-23.54.02-.05.05-.1.07-.15,0-.02.01-.04.02-.05.3-.67.62-1.46.96-2.36.85-2.25,1.76-5.18,2.4-8.66,0,0-11.29,12.51-40.82,24.57v5.93l-3.45-.21.71-21.7-30-16.94s10.39,12.91,11.17,37.53l-42.33-2.58,20.5-23.49-23.65,20.37-4.04-36.58-4.04,36.58-23.65-20.37,20.5,23.49-42.33,2.58c.78-24.62,11.17-37.53,11.17-37.53l-30,16.94.71,21.7-3.45.21v-5.93c-29.53-12.06-40.82-24.57-40.82-24.57.64,3.48,1.56,6.41,2.4,8.66.34.9.66,1.69.96,2.36Z"/>
          <path class="cls-4" d="M98.09,114.82c-2.67-2.68-10.69-8.46-33.04-13.94,1.76,3.3,4.04,6.1,6.27,8.35,6.69,6.14,16.67,12.94,26.78,11.23v-5.64Z"/>
          <path class="cls-4" d="M98.09,123.19c-3.18-.33-11.75-1.44-16.72-4.24,7.02,10.12,16.72,10.39,16.72,10.39v-6.14Z"/>
          <path class="cls-4" d="M252.81,184.28s9.38-7.22,4.87-22.37c0,0-9.47,7.93-4.87,22.37Z"/>
          <path class="cls-4" d="M263.96,182.7c-5.1.41-8.43,1.96-10.61,3.77,0,0-.61.49-1.11,1.01-.52.54-1.58,2.1-2.78,4.13.96-3.35,1.68-9.32-3.21-14.09,0,0-5.28,10.27,1.84,16.34-1.76,2.78-4.21,6.28-7.49,10.3,1.41-3.24,2.28-8.17-.83-14.09,0,0-7.86,9-2.22,17.69-.06.07-.12.14-.18.21-2.06,2.34-4.49,4.91-7.29,7.65,1.12-2.89,1.64-6.77.29-11.67,0,0-8.38,5.08-5.43,16.48-3.18,2.85-6.75,5.84-10.74,8.9,1.8-3.02,3.23-7.4,3.05-13.64,0,0-12.2,5.99-9.7,18.52-7.89,5.56-17.15,11.25-27.95,16.77-.54.28-.75.94-.48,1.48.19.38.58.6.98.6.17,0,.34-.04.5-.12,10.42-5.32,19.42-10.81,27.16-16.19,17.94,6.26,25.46-5.04,25.46-5.04-7.61-2.51-13.22-2.22-17.23-.98,3.73-2.88,7.1-5.7,10.13-8.4,15.56,5.81,22.12-4.76,22.12-4.76-8.03-2.82-13.51-1.78-17.02.02,3.06-2.97,5.68-5.75,7.9-8.26.09-.11.18-.21.28-.32,0,0,0,0,0,0,14.68,2.92,18.78-7.73,18.78-7.73-6.78-1.18-11.23.18-14.09,2.07,3.05-3.9,5.27-7.24,6.82-9.8,11.96-1.44,13.07-10.83,13.07-10.83Z"/>
          <path class="cls-4" d="M80.68,161.92c-4.51,15.15,4.87,22.37,4.87,22.37,4.6-14.43-4.87-22.37-4.87-22.37Z"/>
          <path class="cls-4" d="M158.28,253.05c.4,0,.78-.22.98-.6.28-.54.06-1.2-.48-1.48-10.8-5.52-20.06-11.21-27.95-16.77,2.5-12.53-9.7-18.52-9.7-18.52-.18,6.24,1.25,10.62,3.05,13.64-3.99-3.06-7.55-6.04-10.74-8.9,2.94-11.4-5.43-16.48-5.43-16.48-1.36,4.9-.83,8.77.29,11.67-2.8-2.74-5.23-5.31-7.29-7.65-.06-.07-.12-.14-.18-.21,5.64-8.68-2.22-17.69-2.22-17.69-3.12,5.92-2.25,10.85-.83,14.09-3.28-4.01-5.73-7.52-7.49-10.3,7.12-6.06,1.84-16.34,1.84-16.34-4.89,4.77-4.18,10.75-3.21,14.09-1.2-2.03-2.26-3.59-2.78-4.13-.5-.52-1.11-1.02-1.11-1.01-2.18-1.81-5.51-3.36-10.61-3.77,0,0,1.12,9.39,13.07,10.83,1.55,2.56,3.77,5.89,6.82,9.8-2.86-1.89-7.31-3.24-14.09-2.07,0,0,4.11,10.66,18.78,7.73,0,0,0,0,0,0,.09.11.18.21.28.32,2.22,2.52,4.84,5.29,7.9,8.26-3.51-1.81-8.99-2.84-17.02-.02,0,0,6.56,10.58,22.12,4.76,3.03,2.7,6.4,5.52,10.13,8.4-4.01-1.24-9.62-1.53-17.23.98,0,0,7.51,11.3,25.46,5.04,7.74,5.38,16.74,10.87,27.16,16.19.16.08.33.12.5.12Z"/>
          <path class="cls-4" d="M253.78,91.73c-4.79-10.24-11.76-19.47-20-27.21-10.62-9.83-23.79-17.46-37.87-20.89,12.02,4.26,23.4,10.75,33.18,18.92,9.76,8.2,18.14,18.25,24.69,29.18Z"/>
          <path class="cls-4" d="M76.17,170.27c-2.07-9.86-3.1-19.87-3.12-29.9,2.1-.07,4.19-.33,6.24-.82-2.05-.49-4.14-.76-6.24-.82.06-6.48.55-12.96,1.47-19.41-1.78,6.3-2.79,12.83-3.06,19.39-2.21.04-4.42.31-6.57.83,2.14.52,4.33.79,6.53.83-.21,10.16,1.36,20.36,4.75,29.89Z"/>
          <path class="cls-4" d="M109.27,62.55c9.77-8.17,21.16-14.66,33.18-18.92-14.09,3.43-27.25,11.06-37.87,20.89-8.24,7.75-15.2,16.97-20,27.21,6.56-10.93,14.94-20.98,24.69-29.18Z"/>
          <polygon class="cls-4" points="193.68 39.9 172.13 36.28 169.18 8.74 166.23 36.28 144.67 39.9 166.23 43.52 169.18 63.37 172.13 43.52 193.68 39.9"/>
          <path class="cls-4" d="M266.9,138.71c-.27-6.57-1.28-13.1-3.06-19.39.92,6.45,1.4,12.93,1.47,19.41-2.1.07-4.19.33-6.24.82,2.05.49,4.14.76,6.24.82-.02,10.03-1.05,20.04-3.12,29.9,3.39-9.53,4.97-19.73,4.75-29.89,2.2-.05,4.39-.32,6.53-.83-2.15-.52-4.36-.79-6.57-.83Z"/>
        </g>
      </g>
    </g>
  </g>
</svg>