<?xml version="1.0" encoding="UTF-8"?>
<svg id="_レイヤー_3" data-name="レイヤー 3" xmlns="http://www.w3.org/2000/svg" viewBox="0 0 407.56 444.87">
  <g id="_メイン" data-name="メイン">
    <g>
      <g>
        <path d="M403.19,139.08c-.56,1.4-1.14,2.83-1.75,4.29.54-1.22,1.13-2.65,1.75-4.29Z"/>
        <path d="M333.23,193.16v10.28c18.41,3.11,36.57-9.27,48.76-20.45,4.05-4.1,8.2-9.2,11.41-15.21-40.71,9.97-55.3,20.5-60.17,25.38Z"/>
        <path d="M401.44,143.37c-.06.13-.11.25-.17.38.04-.09.09-.19.13-.28.01-.03.03-.06.04-.1Z"/>
        <path d="M403.19,139.08c1.54-4.1,3.2-9.44,4.38-15.77,0,0-20.55,22.78-74.33,44.74v18.56c38.49-16,60.17-23.32,68.04-42.86.05-.13.11-.25.17-.38.61-1.46,1.19-2.89,1.75-4.29Z"/>
        <path d="M333.23,219.6s17.67-.48,30.45-18.91c-9.04,5.11-24.66,7.13-30.45,7.72v11.19Z"/>
      </g>
      <g>
        <path d="M4.37,139.08c.56,1.4,1.14,2.83,1.75,4.29-.54-1.22-1.13-2.65-1.75-4.29Z"/>
        <path d="M74.33,193.16v10.28c-18.41,3.11-36.57-9.27-48.76-20.45-4.05-4.1-8.2-9.2-11.41-15.21,40.71,9.97,55.3,20.5,60.17,25.38Z"/>
        <path d="M6.12,143.37c.06.13.11.25.17.38-.04-.09-.09-.19-.13-.28-.01-.03-.03-.06-.04-.1Z"/>
        <path d="M4.37,139.08c-1.54-4.1-3.2-9.44-4.37-15.77,0,0,20.55,22.78,74.33,44.74v18.56c-38.49-16-60.17-23.32-68.04-42.86-.05-.13-.11-.25-.17-.38-.61-1.46-1.19-2.89-1.75-4.29Z"/>
        <path d="M74.33,219.6s-17.67-.48-30.45-18.91c9.04,5.11,24.66,7.13,30.45,7.72v11.19Z"/>
      </g>
    </g>
    <g>
      <path d="M305.91,258.89l-2.06,17.39c-1.72.76-3.16,1-3.16,1,.82-7.98,1.85-24.62,1.85-24.62,12.72-9.95,19.37-17.1,22.68-21.3l3.02-92.42-54.62-30.84s22.52,27.97,20.27,81.09c-.84,19.79-9.89,36.71-20.21,49.76l-3.82,129.88-4.88,6.13v-126.11c-11.99,12.36-23.15,19.3-23.15,19.3,6.26,112.69-13.83,145.72-13.83,145.72,0,0,34.82-27.23,56.03-51.81,30.13-34.91,38.9-60.78,38.9-60.78l1.91-58.49c-9.59,9.85-18.93,16.09-18.93,16.09Z"/>
      <path d="M101.65,258.89l2.06,17.39c1.72.76,3.16,1,3.16,1-.82-7.98-1.85-24.62-1.85-24.62-12.72-9.95-19.37-17.1-22.68-21.3l-3.02-92.42,54.62-30.84s-22.52,27.97-20.27,81.09c.84,19.79,9.89,36.71,20.21,49.76l3.82,129.88,4.88,6.13v-126.11c11.99,12.36,23.15,19.3,23.15,19.3-6.26,112.69,13.83,145.72,13.83,145.72,0,0-34.82-27.23-56.03-51.81-30.13-34.91-38.9-60.78-38.9-60.78l-1.91-58.49c9.59,9.85,18.93,16.09,18.93,16.09Z"/>
    </g>
    <g>
      <g>
        <path d="M364.93,278.92s-17.25,14.45-8.87,40.73c0,0,17.09-13.14,8.87-40.73Z"/>
        <path d="M376.37,316.77c-9.29.74-15.35,3.56-19.32,6.86-.01,0-1.11.89-2.02,1.84s-2.88,3.83-5.06,7.52c1.75-6.1,3.05-16.97-5.85-25.66,0,0-9.62,18.71,3.35,29.75-3.21,5.06-7.68,11.44-13.65,18.75,2.57-5.9,4.16-14.87-1.52-25.66,0,0-14.31,16.4-4.04,32.21-.11.13-.22.25-.33.38-3.76,4.25-8.17,8.94-13.28,13.92,2.03-5.26,2.99-12.32.52-21.24,0,0-15.26,9.26-9.9,30.01-5.8,5.2-12.29,10.63-19.56,16.2,3.28-5.5,5.89-13.47,5.56-24.83,0,0-22.22,10.91-17.66,33.72-14.37,10.12-31.23,20.49-50.9,30.53-.98.5-1.37,1.71-.87,2.69.35.69,1.06,1.09,1.78,1.09.31,0,.62-.07.91-.22,18.97-9.69,35.37-19.68,49.46-29.47,32.67,11.4,46.35-9.18,46.35-9.18-13.86-4.57-24.08-4.05-31.38-1.78,6.8-5.25,12.93-10.37,18.45-15.29,28.34,10.58,40.28-8.67,40.28-8.67-14.62-5.13-24.59-3.25-30.99.04,5.57-5.41,10.35-10.47,14.39-15.05.17-.2.34-.39.51-.58,0,0,0,0,0,0,26.73,5.32,34.2-14.08,34.2-14.08-12.35-2.14-20.45.33-25.65,3.76,5.55-7.11,9.6-13.18,12.42-17.84,21.77-2.63,23.8-19.72,23.8-19.72Z"/>
      </g>
      <g>
        <path d="M42.63,278.92s17.25,14.45,8.87,40.73c0,0-17.09-13.14-8.87-40.73Z"/>
        <path d="M31.19,316.77c9.29.74,15.35,3.56,19.32,6.86.01,0,1.11.89,2.02,1.84s2.88,3.83,5.06,7.52c-1.75-6.1-3.05-16.97,5.85-25.66,0,0,9.62,18.71-3.35,29.75,3.21,5.06,7.68,11.44,13.65,18.75-2.57-5.9-4.16-14.87,1.52-25.66,0,0,14.31,16.4,4.04,32.21.11.13.22.25.33.38,3.76,4.25,8.17,8.94,13.28,13.92-2.03-5.26-2.99-12.32-.52-21.24,0,0,15.26,9.26,9.9,30.01,5.8,5.2,12.29,10.63,19.56,16.2-3.28-5.5-5.89-13.47-5.56-24.83,0,0,22.22,10.91,17.66,33.72,14.37,10.12,31.23,20.49,50.9,30.53.98.5,1.37,1.71.87,2.69-.35.69-1.06,1.09-1.78,1.09-.31,0-.62-.07-.91-.22-18.97-9.69-35.37-19.68-49.46-29.47-32.67,11.4-46.35-9.18-46.35-9.18,13.86-4.57,24.08-4.05,31.38-1.78-6.8-5.25-12.93-10.37-18.45-15.29-28.34,10.58-40.28-8.67-40.28-8.67,14.62-5.13,24.59-3.25,30.99.04-5.57-5.41-10.35-10.47-14.39-15.05-.17-.2-.34-.39-.51-.58,0,0,0,0,0,0-26.73,5.32-34.2-14.08-34.2-14.08,12.35-2.14,20.45.33,25.65,3.76-5.55-7.11-9.6-13.18-12.42-17.84-21.77-2.63-23.8-19.72-23.8-19.72Z"/>
      </g>
    </g>
    <g>
      <g>
        <path d="M376.15,201.35c8.52,30.16,7.49,63.24-3.01,92.78,6.41-30.54,7.41-61.88,3.01-92.78h0Z"/>
        <path d="M252.46,63.53c25.65,6.24,49.63,20.14,68.97,38.03,15,14.11,27.69,30.9,36.41,49.56-11.94-19.9-27.2-38.21-44.97-53.14-17.8-14.88-38.52-26.69-60.41-34.45h0Z"/>
      </g>
      <g>
        <path d="M31.41,201.35c-4.39,30.9-3.4,62.23,3.01,92.78-10.5-29.53-11.53-62.62-3.01-92.78h0Z"/>
        <path d="M155.1,63.53c-21.89,7.76-42.62,19.57-60.41,34.45-17.77,14.93-33.02,33.23-44.97,53.14,8.73-18.65,21.42-35.45,36.41-49.56,19.34-17.9,43.31-31.8,68.97-38.03h0Z"/>
      </g>
    </g>
    <polygon points="203.78 0 209.15 50.14 248.4 56.74 209.15 63.34 203.78 99.48 198.41 63.34 159.16 56.74 198.41 50.14 203.78 0"/>
    <polygon points="203.78 99.48 211.72 171.44 342.24 179.38 211.72 187.33 213.29 393.6 203.78 442.59 194.28 393.6 195.84 187.33 65.32 179.38 195.84 171.44 203.78 99.48"/>
    <g>
      <path d="M367.45,238.18c8.59-2.06,17.64-2.07,26.23,0-8.59,2.08-17.64,2.06-26.23,0h0Z"/>
      <path d="M40.11,238.18c-8.59-2.06-17.64-2.07-26.23,0,8.59,2.08,17.64,2.06,26.23,0h0Z"/>
    </g>
    <polygon points="153.38 128.98 203.78 172.41 254.19 128.98 210.21 179.38 254.19 229.79 203.78 186.36 153.38 229.79 197.36 179.38 153.38 128.98"/>
  </g>
</svg>