<?xml version="1.0" encoding="UTF-8"?>
<svg id="_レイヤー_2" data-name="レイヤー 2" xmlns="http://www.w3.org/2000/svg" xmlns:xlink="http://www.w3.org/1999/xlink" viewBox="0 0 1192.98 279.57">
  <defs>
    <style>
      .cls-1 {
        fill: url(#_名称未設定グラデーション_11-6);
      }

      .cls-2 {
        fill: url(#_名称未設定グラデーション_11-3);
      }

      .cls-3 {
        fill: url(#_名称未設定グラデーション_11-8);
      }

      .cls-4 {
        fill: url(#_名称未設定グラデーション_11-5);
      }

      .cls-5 {
        fill: url(#_名称未設定グラデーション_11-7);
      }

      .cls-6 {
        fill: url(#_名称未設定グラデーション_11-9);
      }

      .cls-7 {
        fill: url(#_名称未設定グラデーション_11-2);
      }

      .cls-8 {
        fill: url(#_名称未設定グラデーション_11-4);
      }

      .cls-9 {
        fill: url(#_名称未設定グラデーション_11-30);
      }

      .cls-10 {
        fill: url(#_名称未設定グラデーション_11-31);
      }

      .cls-11 {
        fill: url(#_名称未設定グラデーション_11-32);
      }

      .cls-12 {
        fill: url(#_名称未設定グラデーション_11-35);
      }

      .cls-13 {
        fill: url(#_名称未設定グラデーション_11-36);
      }

      .cls-14 {
        fill: url(#_名称未設定グラデーション_11-33);
      }

      .cls-15 {
        fill: url(#_名称未設定グラデーション_11-34);
      }

      .cls-16 {
        fill: url(#_名称未設定グラデーション_11-12);
      }

      .cls-17 {
        fill: url(#_名称未設定グラデーション_11-14);
      }

      .cls-18 {
        fill: url(#_名称未設定グラデーション_11-15);
      }

      .cls-19 {
        fill: url(#_名称未設定グラデーション_11-10);
      }

      .cls-20 {
        fill: url(#_名称未設定グラデーション_11-13);
      }

      .cls-21 {
        fill: url(#_名称未設定グラデーション_11-18);
      }

      .cls-22 {
        fill: url(#_名称未設定グラデーション_11-19);
      }

      .cls-23 {
        fill: url(#_名称未設定グラデーション_11-17);
      }

      .cls-24 {
        fill: url(#_名称未設定グラデーション_11-16);
      }

      .cls-25 {
        fill: url(#_名称未設定グラデーション_11-11);
      }

      .cls-26 {
        fill: url(#_名称未設定グラデーション_11-25);
      }

      .cls-27 {
        fill: url(#_名称未設定グラデーション_11-26);
      }

      .cls-28 {
        fill: url(#_名称未設定グラデーション_11-23);
      }

      .cls-29 {
        fill: url(#_名称未設定グラデーション_11-24);
      }

      .cls-30 {
        fill: url(#_名称未設定グラデーション_11-21);
      }

      .cls-31 {
        fill: url(#_名称未設定グラデーション_11-22);
      }

      .cls-32 {
        fill: url(#_名称未設定グラデーション_11-20);
      }

      .cls-33 {
        fill: url(#_名称未設定グラデーション_11-29);
      }

      .cls-34 {
        fill: url(#_名称未設定グラデーション_11-27);
      }

      .cls-35 {
        fill: url(#_名称未設定グラデーション_11-28);
      }

      .cls-36 {
        fill: #6eb7ff;
      }

      .cls-37 {
        fill: url(#_名称未設定グラデーション_11);
      }
    </style>
    <linearGradient id="_名称未設定グラデーション_11" data-name="名称未設定グラデーション 11" x1="448.51" y1="56.59" x2="448.51" y2="204.15" gradientUnits="userSpaceOnUse">
      <stop offset="0" stop-color="#4f4f4f"/>
      <stop offset=".56" stop-color="#fff"/>
      <stop offset="1" stop-color="#4f4f4f"/>
    </linearGradient>
    <linearGradient id="_名称未設定グラデーション_11-2" data-name="名称未設定グラデーション 11" x1="572.62" y1="56.59" x2="572.62" y2="204.15" xlink:href="#_名称未設定グラデーション_11"/>
    <linearGradient id="_名称未設定グラデーション_11-3" data-name="名称未設定グラデーション 11" x1="674.7" y1="56.59" x2="674.7" y2="204.15" xlink:href="#_名称未設定グラデーション_11"/>
    <linearGradient id="_名称未設定グラデーション_11-4" data-name="名称未設定グラデーション 11" x1="762.36" y1="56.59" x2="762.36" y2="204.15" xlink:href="#_名称未設定グラデーション_11"/>
    <linearGradient id="_名称未設定グラデーション_11-5" data-name="名称未設定グラデーション 11" x1="893.8" y1="56.59" x2="893.8" y2="204.15" xlink:href="#_名称未設定グラデーション_11"/>
    <linearGradient id="_名称未設定グラデーション_11-6" data-name="名称未設定グラデーション 11" x1="1018.33" y1="56.59" x2="1018.33" y2="204.15" xlink:href="#_名称未設定グラデーション_11"/>
    <linearGradient id="_名称未設定グラデーション_11-7" data-name="名称未設定グラデーション 11" x1="1131.51" y1="56.59" x2="1131.51" y2="204.15" xlink:href="#_名称未設定グラデーション_11"/>
    <linearGradient id="_名称未設定グラデーション_11-8" data-name="名称未設定グラデーション 11" x1="427.4" y1="237.88" x2="1085.46" y2="237.88" xlink:href="#_名称未設定グラデーション_11"/>
    <linearGradient id="_名称未設定グラデーション_11-9" data-name="名称未設定グラデーション 11" x1="427.4" y1="237.88" x2="1085.46" y2="237.88" xlink:href="#_名称未設定グラデーション_11"/>
    <linearGradient id="_名称未設定グラデーション_11-10" data-name="名称未設定グラデーション 11" x1="427.4" y1="237.88" x2="1085.46" y2="237.88" xlink:href="#_名称未設定グラデーション_11"/>
    <linearGradient id="_名称未設定グラデーション_11-11" data-name="名称未設定グラデーション 11" x1="427.4" y1="237.88" x2="1085.46" y2="237.88" xlink:href="#_名称未設定グラデーション_11"/>
    <linearGradient id="_名称未設定グラデーション_11-12" data-name="名称未設定グラデーション 11" x1="235.79" y1="-14.62" x2="235.79" y2="288.78" xlink:href="#_名称未設定グラデーション_11"/>
    <linearGradient id="_名称未設定グラデーション_11-13" data-name="名称未設定グラデーション 11" x1="212.93" y1="-14.62" x2="212.93" y2="288.78" xlink:href="#_名称未設定グラデーション_11"/>
    <linearGradient id="_名称未設定グラデーション_11-14" data-name="名称未設定グラデーション 11" x1="235.23" y1="-14.62" x2="235.23" y2="288.78" xlink:href="#_名称未設定グラデーション_11"/>
    <linearGradient id="_名称未設定グラデーション_11-15" data-name="名称未設定グラデーション 11" x1="217.08" y1="-14.62" x2="217.08" y2="288.78" xlink:href="#_名称未設定グラデーション_11"/>
    <linearGradient id="_名称未設定グラデーション_11-16" data-name="名称未設定グラデーション 11" x1="204.22" y1="-14.62" x2="204.22" y2="288.78" xlink:href="#_名称未設定グラデーション_11"/>
    <linearGradient id="_名称未設定グラデーション_11-17" data-name="名称未設定グラデーション 11" x1="3.08" y1="-14.62" x2="3.08" y2="288.78" xlink:href="#_名称未設定グラデーション_11"/>
    <linearGradient id="_名称未設定グラデーション_11-18" data-name="名称未設定グラデーション 11" x1="25.93" y1="-14.62" x2="25.93" y2="288.78" xlink:href="#_名称未設定グラデーション_11"/>
    <linearGradient id="_名称未設定グラデーション_11-19" data-name="名称未設定グラデーション 11" x1="3.64" y1="-14.62" x2="3.64" y2="288.78" xlink:href="#_名称未設定グラデーション_11"/>
    <linearGradient id="_名称未設定グラデーション_11-20" data-name="名称未設定グラデーション 11" x1="21.78" y1="-14.62" x2="21.78" y2="288.78" xlink:href="#_名称未設定グラデーション_11"/>
    <linearGradient id="_名称未設定グラデーション_11-21" data-name="名称未設定グラデーション 11" x1="34.64" y1="-14.62" x2="34.64" y2="288.78" xlink:href="#_名称未設定グラデーション_11"/>
    <linearGradient id="_名称未設定グラデーション_11-22" data-name="名称未設定グラデーション 11" x1="163" y1="-14.62" x2="163" y2="288.78" xlink:href="#_名称未設定グラデーション_11"/>
    <linearGradient id="_名称未設定グラデーション_11-23" data-name="名称未設定グラデーション 11" x1="75.86" y1="-14.62" x2="75.86" y2="288.78" xlink:href="#_名称未設定グラデーション_11"/>
    <linearGradient id="_名称未設定グラデーション_11-24" data-name="名称未設定グラデーション 11" x1="211.26" y1="-14.62" x2="211.26" y2="288.78" xlink:href="#_名称未設定グラデーション_11"/>
    <linearGradient id="_名称未設定グラデーション_11-25" data-name="名称未設定グラデーション 11" x1="175.23" y1="-14.62" x2="175.23" y2="288.78" xlink:href="#_名称未設定グラデーション_11"/>
    <linearGradient id="_名称未設定グラデーション_11-26" data-name="名称未設定グラデーション 11" x1="27.6" y1="-14.62" x2="27.6" y2="288.78" xlink:href="#_名称未設定グラデーション_11"/>
    <linearGradient id="_名称未設定グラデーション_11-27" data-name="名称未設定グラデーション 11" x1="63.63" y1="-14.62" x2="63.63" y2="288.78" xlink:href="#_名称未設定グラデーション_11"/>
    <linearGradient id="_名称未設定グラデーション_11-28" data-name="名称未設定グラデーション 11" x1="221.24" y1="-14.62" x2="221.24" y2="288.78" xlink:href="#_名称未設定グラデーション_11"/>
    <linearGradient id="_名称未設定グラデーション_11-29" data-name="名称未設定グラデーション 11" x1="178.84" y1="-14.62" x2="178.84" y2="288.78" xlink:href="#_名称未設定グラデーション_11"/>
    <linearGradient id="_名称未設定グラデーション_11-30" data-name="名称未設定グラデーション 11" x1="17.62" y1="-14.62" x2="17.62" y2="288.78" xlink:href="#_名称未設定グラデーション_11"/>
    <linearGradient id="_名称未設定グラデーション_11-31" data-name="名称未設定グラデーション 11" x1="60.02" y1="-14.62" x2="60.02" y2="288.78" xlink:href="#_名称未設定グラデーション_11"/>
    <linearGradient id="_名称未設定グラデーション_11-32" data-name="名称未設定グラデーション 11" x1="119.43" y1="-14.62" x2="119.43" y2="288.78" xlink:href="#_名称未設定グラデーション_11"/>
    <linearGradient id="_名称未設定グラデーション_11-33" data-name="名称未設定グラデーション 11" x1="119.43" y1="-14.62" x2="119.43" y2="288.78" xlink:href="#_名称未設定グラデーション_11"/>
    <linearGradient id="_名称未設定グラデーション_11-34" data-name="名称未設定グラデーション 11" x1="223.04" y1="-14.62" x2="223.04" y2="288.78" xlink:href="#_名称未設定グラデーション_11"/>
    <linearGradient id="_名称未設定グラデーション_11-35" data-name="名称未設定グラデーション 11" x1="15.82" y1="-14.62" x2="15.82" y2="288.78" xlink:href="#_名称未設定グラデーション_11"/>
    <linearGradient id="_名称未設定グラデーション_11-36" data-name="名称未設定グラデーション 11" x1="119.43" y1="-14.62" x2="119.43" y2="288.78" xlink:href="#_名称未設定グラデーション_11"/>
  </defs>
  <g id="_レイヤー_3" data-name="レイヤー 3">
    <g id="_文字3" data-name="文字3">
      <g>
        <path class="cls-37" d="M490.59,193.58h-92.01v-3.24c13.14-.85,14.85-3.07,14.85-16.22v-74.43c0-12.63-2.05-15.19-14.85-15.87v-3.25h90.47l.68,24.41h-4.27c-2.56-15.36-6.49-17.92-26.29-17.92h-22.36c-4.78,0-5.97.68-5.97,6.15v37.55h25.78c14.68,0,17.24-2.9,19.29-16.39h3.93v39.94h-3.93c-2.05-14.34-4.61-16.56-19.29-16.56h-25.78v41.48c0,7.17,4.61,8.02,17.24,8.02h6.15c24.41,0,31.75-4.44,39.43-22.53h4.78l-7.85,28.85Z"/>
        <path class="cls-7" d="M630.4,136.23c-9.9.85-11.95,2.56-11.95,13.66v34.14c-9.39,7.68-25.78,11.95-43.36,11.95s-34.82-6.48-46.09-18.27c-9.56-10.07-14.17-23.21-14.17-39.94,0-18.78,6.83-34.48,18.27-44.89,10.24-9.39,24.24-14.68,40.8-14.68,9.22,0,15.02,1.37,22.7,3.93,3.24,1.19,5.8,1.71,7.51,1.71,3.58,0,6.66-2.39,7.68-5.63h3.76l1.37,36.02h-3.93c-4.27-10.41-7-14.85-12.12-19.8-6.49-6.15-15.36-9.39-24.92-9.39-11.78,0-21.17,4.27-28.51,11.78-9.05,9.05-13.14,24.58-13.14,41.48,0,31.75,18.09,50.87,44.89,50.87,13.14,0,22.7-4.78,22.7-10.41v-26.8c0-13.31-1.71-14.68-15.19-15.7v-3.07h43.7v3.07Z"/>
        <path class="cls-2" d="M649.35,193.58v-3.24c14.34-.51,16.56-2.56,16.56-15.88v-74.94c0-13.49-2.05-14.85-16.56-15.7v-3.25h50.7v3.25c-14.34.68-16.73,2.73-16.73,15.7v74.94c0,12.8,2.73,15.36,16.73,15.88v3.24h-50.7Z"/>
        <path class="cls-8" d="M792.57,114.55c-2.05-7.51-3.93-11.95-7-16.05-5.98-7.68-14.51-13.31-24.75-13.31s-17.24,6.83-17.24,16.22c0,11.61,12.63,18.78,30.56,29.19,18.09,10.58,26.46,20.48,26.46,33.46,0,19.12-15.02,31.92-34.82,31.92-7.17,0-13.83-1.19-20.14-3.93-3.24-1.36-6.15-1.88-8.02-1.88-2.56,0-4.78,2.05-4.78,5.63h-3.76l-4.95-36.19h3.76c7.85,20.65,18.95,30.21,35.16,30.21,11.95,0,20.31-7.85,20.31-19.12,0-5.97-1.71-9.9-4.95-13.48-5.98-6.49-17.75-14-28.68-19.8-15.36-8.19-20.83-18.78-20.83-29.36,0-18.61,12.8-29.87,29.7-29.87,7,0,11.44,1.03,17.92,3.76,3.07,1.36,5.8,2.05,7.51,2.05,2.9,0,4.78-2.05,5.46-5.8h3.58l3.76,36.36h-4.27Z"/>
        <path class="cls-4" d="M909.33,193.58v-3.24c6.14,0,7.34-.34,9.39-1.54,1.37-.68,2.39-2.56,2.39-4.1,0-2.56-1.19-7.17-3.24-11.95l-7-16.05h-44.72l-7.85,19.46c-.85,2.22-1.54,5.12-1.54,7.17,0,5.29,3.76,7,11.95,7v3.24h-33.97v-3.24c9.9-1.03,11.44-4.61,21.51-28.51l35.17-83.3h3.41l41.99,96.1c4.78,11.1,7.17,14.68,16.05,15.71v3.24h-43.53ZM888.68,102.77l-19.63,46.94h39.43l-19.8-46.94Z"/>
        <path class="cls-1" d="M1045.55,193.58l-40.63-52.58-9.56.34v33.12c0,12.97,2.05,15.02,15.19,15.88v3.24h-47.11v-3.24c12.8-1.03,14.51-2.9,14.51-17.92v-72.89c0-12.63-1.37-14.68-14.51-15.7v-3.25h46.43c16.22,0,28.34,4.1,35.68,10.07,5.63,4.61,8.36,12.97,8.36,20.49,0,14.85-9.56,24.75-30.9,27.99l34.14,43.19c4.95,6.32,8.54,7.34,16.05,8.02v3.24h-27.65ZM995.37,135.03c16.39-.34,22.36-1.54,30.21-5.8,6.15-3.41,9.73-10.92,9.73-19.46,0-15.36-10.07-22.87-31.24-22.87-5.8,0-8.7,1.19-8.7,7.17v40.97Z"/>
        <path class="cls-5" d="M1183.14,174.3c-9.9,14.17-26.46,21.68-46.6,21.68-15.53,0-30.39-5.46-40.28-15.19-10.41-10.24-16.39-25.78-16.39-42.67s5.63-31.24,15.36-42.16c10.92-12.12,25.61-17.75,41.48-17.75,6.66,0,13.49.68,20.31,2.56,3.58,1.02,8.88,3.07,11.78,3.07,3.24,0,6.14-2.05,7.17-5.63h3.41l1.54,38.75h-3.93c-2.05-9.39-4.61-14.34-8.88-18.95-7.51-8.02-16.39-12.97-27.48-12.97-25.78,0-40.97,20.82-40.97,50.36,0,18.78,4.27,32.09,12.29,40.8,7.51,8.02,18.61,12.29,30.39,12.29,15.36,0,24.75-5.12,37.55-17.24l3.24,3.07Z"/>
        <g>
          <path class="cls-36" d="M289.33,183.34c0-2.05.68-4.95,1.54-7.17l7.85-19.46h19.04c-3.99-9.86-9.07-15.05-18.53-19.54l-10.41,24.66c-10.07,23.9-11.61,27.48-21.51,28.51v3.24h33.97v-3.24c-8.19,0-11.95-1.71-11.95-7Z"/>
          <path class="cls-36" d="M322.72,93.67c5.84,23.4,10.71,30.66,27.71,37.58l-23.03-52.71h-3.41l-20.53,48.64c10.44-6.17,14.53-14.53,19.27-33.51Z"/>
          <path class="cls-36" d="M369.39,174.64l-17.44-39.92c-13.3,5.18-19.54,10.3-24.27,22h15.76l7,16.05c2.05,4.78,3.24,9.39,3.24,11.95,0,1.54-1.02,3.41-2.39,4.1-2.05,1.19-3.24,1.54-9.39,1.54v3.24h43.53v-3.24c-8.88-1.03-11.27-4.61-16.05-15.71Z"/>
        </g>
      </g>
      <g>
        <path class="cls-3" d="M789.16,237.88c18.68-4.62,38.41-4.65,57.09,0-18.68,4.66-38.41,4.62-57.09,0h0Z"/>
        <path class="cls-6" d="M817.71,279.57c-4.62-27.56-4.66-55.83,0-83.38,4.66,27.55,4.62,55.83,0,83.38h0Z"/>
        <path class="cls-19" d="M267.64,237.88c81.82-1.69,171.54-2.47,253.7-2.96,84.63.27,169.23-2.71,253.7,2.96-84.47,5.67-169.06,2.69-253.7,2.96-82.23-.49-171.79-1.27-253.7-2.96h0Z"/>
        <path class="cls-25" d="M1192.98,237.88c-54.21,1.68-113.66,2.46-168.09,2.94-56.08-.27-112.12,2.69-168.09-2.94,55.97-5.64,112.02-2.67,168.09-2.94,54.48.49,113.82,1.27,168.09,2.94h0Z"/>
      </g>
    </g>
    <g id="_メイン" data-name="メイン">
      <g>
        <g>
          <g>
            <path class="cls-16" d="M236.3,81.51c-.33.82-.67,1.66-1.02,2.52.32-.71.66-1.55,1.02-2.52Z"/>
            <path class="cls-20" d="M195.3,113.21v6.02c10.79,1.83,21.44-5.43,28.57-11.98,2.37-2.4,4.81-5.39,6.69-8.91-23.86,5.84-32.41,12.01-35.26,14.87Z"/>
            <path class="cls-17" d="M235.27,84.03c-.03.08-.07.15-.1.22.02-.05.05-.11.08-.16,0-.02.02-.04.02-.06Z"/>
            <path class="cls-18" d="M236.3,81.51c.9-2.4,1.88-5.53,2.56-9.24,0,0-12.05,13.35-43.56,26.22v10.88c22.56-9.38,35.26-13.67,39.88-25.12.03-.07.07-.15.1-.22.36-.86.7-1.69,1.02-2.52Z"/>
            <path class="cls-24" d="M195.3,128.7s10.36-.28,17.84-11.08c-5.3,2.99-14.45,4.18-17.84,4.53v6.56Z"/>
          </g>
          <g>
            <path class="cls-23" d="M2.56,81.51c.33.82.67,1.66,1.02,2.52-.32-.71-.66-1.55-1.02-2.52Z"/>
            <path class="cls-21" d="M43.56,113.21v6.02c-10.79,1.83-21.44-5.43-28.57-11.98-2.37-2.4-4.81-5.39-6.69-8.91,23.86,5.84,32.41,12.01,35.26,14.87Z"/>
            <path class="cls-22" d="M3.59,84.03c.03.08.07.15.1.22-.02-.05-.05-.11-.08-.16,0-.02-.02-.04-.02-.06Z"/>
            <path class="cls-32" d="M2.56,81.51c-.9-2.4-1.88-5.53-2.56-9.24,0,0,12.05,13.35,43.56,26.22v10.88c-22.56-9.38-35.26-13.67-39.88-25.12-.03-.07-.07-.15-.1-.22-.36-.86-.7-1.69-1.02-2.52Z"/>
            <path class="cls-30" d="M43.56,128.7s-10.36-.28-17.84-11.08c5.3,2.99,14.45,4.18,17.84,4.53v6.56Z"/>
          </g>
        </g>
        <g>
          <path class="cls-31" d="M179.29,151.73l-1.21,10.19c-1.01.45-1.85.59-1.85.59.48-4.68,1.08-14.43,1.08-14.43,7.46-5.83,11.35-10.02,13.3-12.48l1.77-54.16-32.01-18.07s13.2,16.39,11.88,47.52c-.49,11.6-5.79,21.52-11.84,29.16l-2.24,76.12-2.86,3.59v-73.91c-7.03,7.25-13.57,11.31-13.57,11.31,3.67,66.04-8.1,85.4-8.1,85.4,0,0,20.41-15.96,32.84-30.36,17.66-20.46,22.8-35.62,22.8-35.62l1.12-34.28c-5.62,5.77-11.1,9.43-11.1,9.43Z"/>
          <path class="cls-28" d="M59.58,151.73l1.21,10.19c1.01.45,1.85.59,1.85.59-.48-4.68-1.08-14.43-1.08-14.43-7.46-5.83-11.35-10.02-13.3-12.48l-1.77-54.16,32.01-18.07s-13.2,16.39-11.88,47.52c.49,11.6,5.79,21.52,11.84,29.16l2.24,76.12,2.86,3.59v-73.91c7.03,7.25,13.57,11.31,13.57,11.31-3.67,66.04,8.1,85.4,8.1,85.4,0,0-20.41-15.96-32.84-30.36-17.66-20.46-22.8-35.62-22.8-35.62l-1.12-34.28c5.62,5.77,11.1,9.43,11.1,9.43Z"/>
        </g>
        <g>
          <g>
            <path class="cls-29" d="M213.88,163.47s-10.11,8.47-5.2,23.87c0,0,10.01-7.7,5.2-23.87Z"/>
            <path class="cls-26" d="M220.58,185.65c-5.44.43-9,2.09-11.32,4.02,0,0-.65.52-1.19,1.08s-1.69,2.24-2.96,4.41c1.03-3.57,1.79-9.95-3.43-15.04,0,0-5.64,10.96,1.96,17.43-1.88,2.96-4.5,6.71-8,10.99,1.51-3.46,2.44-8.72-.89-15.04,0,0-8.39,9.61-2.37,18.88-.07.08-.13.15-.2.22-2.2,2.49-4.79,5.24-7.78,8.16,1.19-3.08,1.75-7.22.3-12.45,0,0-8.94,5.42-5.8,17.59-3.4,3.05-7.2,6.23-11.46,9.5,1.92-3.22,3.45-7.89,3.26-14.55,0,0-13.02,6.4-10.35,19.76-8.42,5.93-18.3,12.01-29.83,17.89-.58.29-.81,1-.51,1.58.21.41.62.64,1.04.64.18,0,.36-.04.53-.13,11.12-5.68,20.73-11.54,28.99-17.27,19.15,6.68,27.17-5.38,27.17-5.38-8.12-2.68-14.11-2.37-18.39-1.04,3.98-3.08,7.58-6.08,10.81-8.96,16.61,6.2,23.61-5.08,23.61-5.08-8.57-3.01-14.41-1.9-18.16.03,3.27-3.17,6.07-6.14,8.43-8.82.1-.11.2-.23.3-.34,0,0,0,0,0,0,15.67,3.12,20.05-8.25,20.05-8.25-7.24-1.25-11.98.19-15.03,2.21,3.26-4.17,5.63-7.73,7.28-10.46,12.76-1.54,13.95-11.56,13.95-11.56Z"/>
          </g>
          <g>
            <path class="cls-27" d="M24.98,163.47s10.11,8.47,5.2,23.87c0,0-10.01-7.7-5.2-23.87Z"/>
            <path class="cls-34" d="M18.28,185.65c5.44.43,9,2.09,11.32,4.02,0,0,.65.52,1.19,1.08s1.69,2.24,2.96,4.41c-1.03-3.57-1.79-9.95,3.43-15.04,0,0,5.64,10.96-1.96,17.43,1.88,2.96,4.5,6.71,8,10.99-1.51-3.46-2.44-8.72.89-15.04,0,0,8.39,9.61,2.37,18.88.07.08.13.15.2.22,2.2,2.49,4.79,5.24,7.78,8.16-1.19-3.08-1.75-7.22-.3-12.45,0,0,8.94,5.42,5.8,17.59,3.4,3.05,7.2,6.23,11.46,9.5-1.92-3.22-3.45-7.89-3.26-14.55,0,0,13.02,6.4,10.35,19.76,8.42,5.93,18.3,12.01,29.83,17.89.58.29.81,1,.51,1.58-.21.41-.62.64-1.04.64-.18,0-.36-.04-.53-.13-11.12-5.68-20.73-11.54-28.99-17.27-19.15,6.68-27.17-5.38-27.17-5.38,8.12-2.68,14.11-2.37,18.39-1.04-3.98-3.08-7.58-6.08-10.81-8.96-16.61,6.2-23.61-5.08-23.61-5.08,8.57-3.01,14.41-1.9,18.16.03-3.27-3.17-6.07-6.14-8.43-8.82-.1-.11-.2-.23-.3-.34,0,0,0,0,0,0-15.67,3.12-20.05-8.25-20.05-8.25,7.24-1.25,11.98.19,15.03,2.21-3.26-4.17-5.63-7.73-7.28-10.46-12.76-1.54-13.95-11.56-13.95-11.56Z"/>
          </g>
        </g>
        <g>
          <g>
            <path class="cls-35" d="M220.45,118.01c4.99,17.67,4.39,37.07-1.76,54.37,3.76-17.9,4.34-36.27,1.76-54.37h0Z"/>
            <path class="cls-33" d="M147.96,37.23c15.03,3.66,29.09,11.8,40.42,22.29,8.79,8.27,16.23,18.11,21.34,29.04-7-11.66-15.94-22.39-26.35-31.14-10.43-8.72-22.58-15.64-35.41-20.19h0Z"/>
          </g>
          <g>
            <path class="cls-9" d="M18.41,118.01c-2.58,18.11-1.99,36.47,1.76,54.37-6.16-17.31-6.76-36.7-1.76-54.37h0Z"/>
            <path class="cls-10" d="M90.9,37.23c-12.83,4.55-24.98,11.47-35.41,20.19-10.41,8.75-19.35,19.48-26.35,31.14,5.12-10.93,12.55-20.77,21.34-29.04,11.34-10.49,25.38-18.63,40.42-22.29h0Z"/>
          </g>
        </g>
        <polygon class="cls-11" points="119.43 0 122.58 29.39 145.58 33.25 122.58 37.12 119.43 58.3 116.29 37.12 93.28 33.25 116.29 29.39 119.43 0"/>
        <polygon class="cls-14" points="119.43 58.3 124.09 100.48 200.58 105.13 124.09 109.79 125 230.68 119.43 259.39 113.86 230.68 114.78 109.79 38.28 105.13 114.78 100.48 119.43 58.3"/>
        <g>
          <path class="cls-15" d="M215.36,139.59c5.04-1.21,10.34-1.22,15.37,0-5.04,1.22-10.34,1.21-15.37,0h0Z"/>
          <path class="cls-12" d="M23.51,139.59c-5.04-1.21-10.34-1.22-15.37,0,5.04,1.22,10.34,1.21,15.37,0h0Z"/>
        </g>
        <polygon class="cls-13" points="89.89 75.59 119.43 101.05 148.97 75.59 123.2 105.13 148.97 134.67 119.43 109.22 89.89 134.67 115.67 105.13 89.89 75.59"/>
      </g>
    </g>
  </g>
</svg>