<?xml version="1.0" encoding="UTF-8"?>
<svg id="_レイヤー_3" data-name="レイヤー 3" xmlns="http://www.w3.org/2000/svg" viewBox="0 0 408.21 52.5">
  <g id="_文字3" data-name="文字3">
    <g>
      <path d="M99.52,51.43h-41.01v-1.45c5.86-.38,6.62-1.37,6.62-7.23V9.59c0-5.63-.91-6.77-6.62-7.08v-1.45h40.33l.3,10.88h-1.9c-1.14-6.85-2.89-7.99-11.72-7.99h-9.97c-2.13,0-2.66.3-2.66,2.74v16.74h11.49c6.54,0,7.68-1.29,8.6-7.3h1.75v17.8h-1.75c-.91-6.39-2.05-7.38-8.6-7.38h-11.49v18.49c0,3.2,2.05,3.58,7.68,3.58h2.74c10.88,0,14.15-1.98,17.58-10.04h2.13l-3.5,12.86Z"/>
      <path d="M161.84,25.87c-4.41.38-5.33,1.14-5.33,6.09v15.22c-4.18,3.42-11.49,5.33-19.33,5.33s-15.52-2.89-20.54-8.14c-4.26-4.49-6.32-10.35-6.32-17.8,0-8.37,3.04-15.37,8.14-20.01,4.56-4.18,10.8-6.54,18.18-6.54,4.11,0,6.7.61,10.12,1.75,1.45.53,2.59.76,3.35.76,1.6,0,2.97-1.07,3.42-2.51h1.67l.61,16.06h-1.75c-1.9-4.64-3.12-6.62-5.4-8.83-2.89-2.74-6.85-4.18-11.11-4.18-5.25,0-9.43,1.9-12.71,5.25-4.03,4.03-5.86,10.96-5.86,18.49,0,14.15,8.07,22.67,20.01,22.67,5.86,0,10.12-2.13,10.12-4.64v-11.95c0-5.93-.76-6.54-6.77-7v-1.37h19.48v1.37Z"/>
      <path d="M170.29,51.43v-1.45c6.39-.23,7.38-1.14,7.38-7.08V9.51c0-6.01-.91-6.62-7.38-7v-1.45h22.6v1.45c-6.39.3-7.46,1.22-7.46,7v33.4c0,5.71,1.22,6.85,7.46,7.08v1.45h-22.6Z"/>
      <path d="M234.12,16.21c-.91-3.35-1.75-5.33-3.12-7.15-2.66-3.42-6.47-5.93-11.03-5.93s-7.69,3.04-7.69,7.23c0,5.17,5.63,8.37,13.62,13.01,8.07,4.72,11.79,9.13,11.79,14.91,0,8.52-6.7,14.23-15.52,14.23-3.2,0-6.16-.53-8.98-1.75-1.45-.61-2.74-.84-3.58-.84-1.14,0-2.13.91-2.13,2.51h-1.67l-2.21-16.13h1.67c3.5,9.21,8.45,13.47,15.67,13.47,5.33,0,9.05-3.5,9.05-8.52,0-2.66-.76-4.41-2.21-6.01-2.66-2.89-7.91-6.24-12.78-8.83-6.85-3.65-9.28-8.37-9.28-13.09,0-8.29,5.71-13.32,13.24-13.32,3.12,0,5.1.46,7.99,1.67,1.37.61,2.59.91,3.35.91,1.29,0,2.13-.91,2.43-2.59h1.6l1.67,16.21h-1.9Z"/>
      <path d="M286.17,51.43v-1.45c2.74,0,3.27-.15,4.18-.68.61-.3,1.07-1.14,1.07-1.83,0-1.14-.53-3.2-1.45-5.33l-3.12-7.15h-19.93l-3.5,8.67c-.38.99-.68,2.28-.68,3.2,0,2.36,1.67,3.12,5.33,3.12v1.45h-15.14v-1.45c4.41-.46,5.1-2.05,9.59-12.71L278.18.15h1.52l18.72,42.84c2.13,4.95,3.2,6.54,7.15,7v1.45h-19.4ZM276.96,10.96l-8.75,20.92h17.58l-8.83-20.92Z"/>
      <path d="M346.89,51.43l-18.11-23.43-4.26.15v14.76c0,5.78.91,6.7,6.77,7.08v1.45h-21v-1.45c5.71-.46,6.47-1.29,6.47-7.99V9.51c0-5.63-.61-6.54-6.47-7v-1.45h20.7c7.23,0,12.63,1.83,15.9,4.49,2.51,2.05,3.73,5.78,3.73,9.13,0,6.62-4.26,11.03-13.77,12.48l15.22,19.25c2.21,2.81,3.8,3.27,7.15,3.58v1.45h-12.33ZM324.52,25.34c7.3-.15,9.97-.68,13.47-2.59,2.74-1.52,4.34-4.87,4.34-8.67,0-6.85-4.49-10.19-13.92-10.19-2.59,0-3.88.53-3.88,3.2v18.26Z"/>
      <path d="M408.21,42.84c-4.41,6.31-11.79,9.66-20.77,9.66-6.92,0-13.54-2.43-17.96-6.77-4.64-4.56-7.3-11.49-7.3-19.02s2.51-13.92,6.85-18.79c4.87-5.4,11.41-7.91,18.49-7.91,2.97,0,6.01.3,9.05,1.14,1.6.46,3.96,1.37,5.25,1.37,1.45,0,2.74-.91,3.2-2.51h1.52l.68,17.27h-1.75c-.91-4.18-2.05-6.39-3.96-8.45-3.35-3.58-7.3-5.78-12.25-5.78-11.49,0-18.26,9.28-18.26,22.45,0,8.37,1.9,14.3,5.48,18.18,3.35,3.58,8.29,5.48,13.54,5.48,6.85,0,11.03-2.28,16.74-7.68l1.45,1.37Z"/>
      <g>
        <path d="M9.82,46.87c0-.91.3-2.21.68-3.2l3.5-8.67h8.49c-1.78-4.4-4.04-6.71-8.26-8.71l-4.64,10.99c-4.49,10.65-5.17,12.25-9.59,12.71v1.45h15.14v-1.45c-3.65,0-5.33-.76-5.33-3.12Z"/>
        <path d="M24.7,6.9c2.6,10.43,4.77,13.67,12.35,16.75L26.78.15h-1.52l-9.15,21.68c4.65-2.75,6.48-6.48,8.59-14.94Z"/>
        <path d="M45.5,42.99l-7.78-17.8c-5.93,2.31-8.71,4.59-10.82,9.81h7.03l3.12,7.15c.91,2.13,1.45,4.18,1.45,5.33,0,.68-.46,1.52-1.07,1.83-.91.53-1.45.68-4.19.68v1.45h19.4v-1.45c-3.96-.46-5.02-2.05-7.15-7Z"/>
      </g>
    </g>
  </g>
</svg>